<?xml version="1.0" standalone="no"?>
<!DOCTYPE svg PUBLIC "-//W3C//DTD SVG 20010904//EN"
 "http://www.w3.org/TR/2001/REC-SVG-20010904/DTD/svg10.dtd">
<svg version="1.0" xmlns="http://www.w3.org/2000/svg"
 width="44.000000pt" height="46.000000pt" viewBox="0 0 44.000000 46.000000"
 preserveAspectRatio="xMidYMid meet">
<metadata>
Created by potrace 1.16, written by Peter Selinger 2001-2019
</metadata>
<g transform="translate(0.000000,46.000000) scale(0.100000,-0.100000)"
fill="#000000" stroke="none">
<path d="M139 441 c-20 -16 -24 -30 -27 -92 -4 -78 -14 -101 -34 -81 -9 9 -8
12 5 12 9 0 17 5 17 10 0 6 -7 10 -15 10 -8 0 -15 5 -15 10 0 6 7 10 15 10 8
0 15 5 15 10 0 6 -7 10 -15 10 -8 0 -15 5 -15 10 0 6 7 10 15 10 8 0 15 5 15
10 0 6 -7 10 -15 10 -8 0 -24 5 -34 12 -15 9 -23 9 -36 -2 -13 -11 -15 -30
-13 -109 l3 -96 40 -5 40 -5 3 -57 c3 -55 2 -58 -21 -58 -21 0 -67 -36 -67
-53 0 -4 72 -7 160 -7 90 0 160 4 160 9 0 5 -12 18 -27 29 -34 25 -23 42 27
42 22 0 55 8 74 17 37 19 46 33 21 33 -23 0 -18 18 8 23 l22 4 -22 2 c-27 1
-31 31 -5 32 13 0 14 2 2 6 -8 4 -22 16 -32 27 -13 17 -20 19 -35 10 -10 -6
-19 -23 -21 -37 -5 -40 -62 -50 -62 -11 0 8 7 14 15 14 8 0 15 5 15 10 0 6 -7
10 -15 10 -23 0 -18 18 8 23 l22 4 -22 8 c-26 8 -31 25 -8 25 8 0 15 5 15 10
0 6 -7 10 -15 10 -23 0 -18 17 8 25 l22 8 -22 4 c-28 5 -30 23 -3 23 11 0 20
5 20 10 0 6 -9 10 -20 10 -11 0 -20 5 -20 10 0 6 9 10 20 10 11 0 20 5 20 10
0 6 -9 10 -21 10 -11 0 -32 9 -46 20 -32 25 -74 26 -104 1z m94 -16 c20 -20
30 -102 22 -174 -10 -85 -2 -103 43 -99 32 3 37 7 40 31 4 32 29 47 43 26 13
-20 11 -83 -3 -97 -7 -7 -29 -12 -49 -12 -46 0 -69 -8 -69 -25 0 -13 -48 -27
-62 -18 -5 2 -8 56 -8 119 0 88 -3 115 -12 111 -9 -3 -13 -34 -13 -110 0 -65
-4 -107 -10 -107 -5 0 -10 23 -10 52 0 32 -5 53 -12 55 -10 3 -13 -11 -13 -51
0 -30 -4 -58 -10 -61 -6 -4 -9 18 -9 56 1 67 -7 79 -52 79 -24 0 -27 5 -31 38
-1 21 -2 61 0 90 5 68 25 64 32 -6 6 -59 18 -75 51 -70 23 3 24 8 27 83 2 43
8 85 14 92 14 18 73 16 91 -2z"/>
</g>
</svg>
